<svg xmlns="http://www.w3.org/2000/svg" viewBox="0 0 33.81 33.81"><defs><style>.cls-1{fill:#518df7;}.cls-2{fill:#f04336;}.cls-3{fill:#28b346;}.cls-4{fill:#faba00;}</style></defs><g id="Layer_2" data-name="Layer 2"><g id="Layer_6" data-name="Layer 6"><path class="cls-1" d="M22.06,25.6a10.89,10.89,0,0,0,3.65-3.8c.76-1.37.77-1.37-.79-1.37H17.84c-.4,0-.55-.09-.54-.52,0-1.88,0-3.77,0-5.65,0-.37.06-.53.49-.52H33.1c.29,0,.46.05.5.37a16.78,16.78,0,0,1-6,15.88s-.09.05-.14.07a.67.67,0,0,1-.51-.22c-1.51-1.25-3-2.48-4.54-3.71C22.27,26,22.06,25.87,22.06,25.6Z"/><path class="cls-2" d="M1.9,9.19A16.21,16.21,0,0,1,8,2.58,16.89,16.89,0,0,1,27.41,3.65c.24.19.27.29,0,.49q-2.46,2-4.9,4a.48.48,0,0,1-.64,0,10,10,0,0,0-13.8,3.92c-.27.49-.47,1-.71,1.53-.51-.09-.82-.51-1.19-.81-1.33-1.09-2.68-2.17-4-3.28C2.06,9.45,1.92,9.37,1.9,9.19Z"/><path class="cls-3" d="M22.06,25.6l4.57,3.79.86.68a15.19,15.19,0,0,1-6.9,3.34A16.61,16.61,0,0,1,3.94,27.75,12.05,12.05,0,0,1,2,24.91c.19-.47.64-.69,1-1,1.32-1.1,2.66-2.18,4-3.28.13-.11.25-.26.46-.15a10.74,10.74,0,0,0,2.79,4,10.08,10.08,0,0,0,11.4,1.31Z"/><path class="cls-4" d="M7.49,20.5,2.33,24.68,2,24.91a15.26,15.26,0,0,1-1.77-5A16.73,16.73,0,0,1,1.56,9.84c.1-.23.23-.44.34-.65l4.63,3.74.85.71A10.67,10.67,0,0,0,7.49,20.5Z"/></g></g></svg>