<svg xmlns="http://www.w3.org/2000/svg" viewBox="0 0 33.72 33.73"><defs><style>.cls-1{fill:#f34336;}.cls-2{fill:#4cae50;}.cls-3{fill:#2195f2;}.cls-4{fill:#fec007;}</style></defs><g id="Layer_2" data-name="Layer 2"><g id="Layer_6" data-name="Layer 6"><path class="cls-1" d="M15.81,7.91c0,2.47,0,4.95,0,7.42,0,.4-.1.49-.5.49H.48c-.41,0-.48-.12-.48-.5q0-7,0-14C0,.38.38,0,1.32,0c4.67,0,9.33,0,14,0,.38,0,.5.08.5.49C15.8,3,15.81,5.44,15.81,7.91Z"/><path class="cls-2" d="M17.92,7.86c0-2.44,0-4.88,0-7.32,0-.38.05-.54.49-.54,4.69,0,9.37,0,14.06,0,.87,0,1.25.39,1.25,1.26,0,4.68,0,9.36,0,14.05,0,.37-.07.5-.48.5H18.4c-.39,0-.5-.09-.49-.49Q17.93,11.6,17.92,7.86Z"/><path class="cls-3" d="M8,17.92h7.32c.38,0,.54.05.54.5q0,7.43,0,14.84c0,.35-.08.48-.46.48-4.7,0-9.4,0-14.1,0C.39,33.72,0,33.33,0,32.45q0-7,0-14.05c0-.39.09-.5.49-.49C3,17.93,5.47,17.92,8,17.92Z"/><path class="cls-4" d="M17.92,25.82c0-2.47,0-4.95,0-7.42,0-.4.1-.49.49-.49q7.43,0,14.84,0c.41,0,.48.13.48.5,0,4.67,0,9.33,0,14,0,.94-.36,1.31-1.31,1.31-4.64,0-9.29,0-13.94,0-.43,0-.56-.09-.56-.54C17.93,30.73,17.91,28.28,17.92,25.82Z"/></g></g></svg>